<svg fill="none" height="24" viewBox="0 0 24 24" width="24" xmlns="http://www.w3.org/2000/svg"><path d="m16.1924 5.65683c.3905-.39053.3905-1.02369 0-1.41422l-2.8284-2.82842c-.7811-.781051-2.0474-.781053-2.8285 0l-2.82839 2.82842c-.39053.39053-.39053 1.02369 0 1.41422.39052.39052 1.02368.39052 1.41421 0l1.87868-1.87871v7.27218h-7.27216l1.87871-1.87873c.39052-.39053.39052-1.02369 0-1.41422-.39053-.39052-1.02369-.39052-1.41421 0l-2.82843 2.82845c-.781047.781-.781051 2.0474 0 2.8284l2.82843 2.8284c.39052.3906 1.02369.3906 1.41421 0 .39052-.3905.39052-1.0236 0-1.4142l-1.77815-1.7781h7.1716v7.1716l-1.87868-1.8787c-.39053-.3906-1.02369-.3906-1.41422 0-.39052.3905-.39052 1.0237 0 1.4142l2.8284 2.8284c.7811.7811 2.0474.7811 2.8285 0l2.8284-2.8284c.3905-.3905.3905-1.0237 0-1.4142-.3905-.3906-1.0237-.3906-1.4142 0l-1.7782 1.7781v-7.071h7.071l-1.7781 1.7781c-.3905.3906-.3905 1.0237 0 1.4142.3905.3906 1.0237.3906 1.4142 0l2.8284-2.8284c.7811-.781.7811-2.0474 0-2.8284l-2.8284-2.82845c-.3905-.39052-1.0237-.39052-1.4142 0-.3905.39053-.3905 1.02369 0 1.41422l1.8787 1.87873h-7.1716v-7.17163l1.7782 1.77816c.3905.39052 1.0237.39052 1.4142 0z" fill="#0f0f0f"/></svg>